# Blender 4.0.2
# www.blender.org
mtllib error.mtl
o Text
v -0.375196 0.096058 -0.044673
v -0.373008 0.111683 -0.044673
v -0.369045 0.124379 -0.044673
v -0.336103 0.142223 -0.044673
v -0.318475 0.142223 -0.044673
v -0.318475 -0.000178 -0.044673
v -0.360199 0.008256 -0.044673
v -0.366160 0.017578 -0.044673
v -0.388861 -0.062678 -0.044673
v -0.340922 -0.095348 -0.044673
v -0.318475 -0.095348 -0.044673
v -0.318475 -0.289240 -0.044673
v -0.270028 -0.289240 -0.044673
v -0.351702 0.239524 -0.044673
v -0.380491 0.234197 -0.044673
v -0.403066 0.211115 -0.044673
v -0.412625 0.190740 -0.044673
v -0.424705 0.133301 -0.044673
v -0.426274 0.094283 -0.044673
v -0.423849 0.041104 -0.044673
v -0.239012 0.167814 -0.044673
v -0.258543 -0.133555 -0.044673
v -0.167611 -0.288381 -0.044673
v -0.126996 -0.270583 -0.044673
v -0.076806 0.084179 -0.044673
v -0.126996 0.220952 -0.044673
v -0.167611 0.238665 -0.044673
v -0.208163 0.220952 -0.044673
v -0.210984 -0.098597 -0.044673
v -0.205943 0.081673 -0.044673
v -0.193245 0.122025 -0.044673
v -0.185303 0.134003 -0.044673
v -0.150300 0.134343 -0.044673
v -0.129517 0.082480 -0.044673
v -0.124935 0.052619 -0.044673
v -0.121939 0.016471 -0.044673
v -0.120940 -0.025028 -0.044673
v -0.124808 -0.101995 -0.044673
v -0.129295 -0.130836 -0.044673
v -0.135017 -0.153816 -0.044673
v -0.141898 -0.171231 -0.044673
v -0.176901 -0.190473 -0.044673
v -0.013894 0.041903 -0.044673
v -0.015654 0.057484 -0.044673
v -0.003304 0.134055 -0.044673
v 0.015371 0.141912 -0.044673
v 0.041211 -0.000178 -0.044673
v 0.026246 -0.000178 -0.044673
v 0.015529 0.000621 -0.044673
v 0.006715 0.003018 -0.044673
v -0.000514 0.008256 -0.044673
v -0.092207 -0.289240 -0.044673
v 0.018763 -0.095348 -0.044673
v 0.041211 -0.289240 -0.044673
v 0.089657 -0.289240 -0.044673
v -0.007584 0.238192 -0.044673
v -0.020806 0.234197 -0.044673
v -0.032473 0.225763 -0.044673
v -0.043380 0.211115 -0.044673
v -0.052940 0.190740 -0.044673
v -0.060311 0.165128 -0.044673
v -0.056887 -0.001243 -0.044673
v 0.155375 0.057484 -0.044673
v 0.155518 0.096058 -0.044673
v 0.161669 0.124379 -0.044673
v 0.167724 0.134055 -0.044673
v 0.173083 0.138628 -0.044673
v 0.186399 0.141912 -0.044673
v 0.194611 0.142223 -0.044673
v 0.212239 0.142223 -0.044673
v 0.170514 0.008256 -0.044673
v 0.164554 0.017578 -0.044673
v 0.160162 0.029164 -0.044673
v 0.078821 -0.289240 -0.044673
v 0.212239 -0.095348 -0.044673
v 0.212239 -0.289240 -0.044673
v 0.260686 0.239524 -0.044673
v 0.150223 0.234197 -0.044673
v 0.127648 0.211115 -0.044673
v 0.269381 0.137251 -0.044673
v 0.357523 0.137251 -0.044673
v 0.275722 -0.056285 -0.044673
v 0.357523 -0.056285 -0.044673
v -0.375339 0.057484 0.044673
v -0.357631 0.138628 0.044673
v -0.351449 0.140980 0.044673
v -0.344315 0.141912 0.044673
v -0.336103 0.142223 0.044673
v -0.318475 0.142223 0.044673
v -0.352970 0.003019 0.044673
v -0.366160 0.017578 0.044673
v -0.388861 -0.062678 0.044673
v -0.392412 -0.289240 0.044673
v -0.340922 -0.095348 0.044673
v -0.318475 -0.095348 0.044673
v -0.318475 -0.289240 0.044673
v -0.270028 -0.289240 0.044673
v -0.270028 0.239524 0.044673
v -0.419996 0.165128 0.044673
v -0.426274 0.094283 0.044673
v -0.239012 0.167814 0.044673
v -0.265011 -0.025028 0.044673
v -0.239139 -0.217190 0.044673
v -0.208321 -0.270583 0.044673
v -0.096210 -0.217190 0.044673
v -0.076806 -0.133555 0.044673
v -0.070338 -0.025028 0.044673
v -0.076806 0.084179 0.044673
v -0.126996 0.220952 0.044673
v -0.167611 0.238665 0.044673
v -0.185620 -0.183209 0.044673
v -0.206641 -0.127948 0.044673
v -0.213553 -0.064403 0.044673
v -0.213426 0.017448 0.044673
v -0.210477 0.052789 0.044673
v -0.176695 0.140884 0.044673
v -0.150300 0.134343 0.044673
v -0.142452 0.122620 0.044673
v -0.135271 0.105119 0.044673
v -0.129517 0.082480 0.044673
v -0.124935 0.052619 0.044673
v -0.121939 0.016471 0.044673
v -0.121907 -0.066867 0.044673
v -0.124808 -0.101995 0.044673
v -0.149856 -0.183379 0.044673
v -0.158575 -0.190515 0.044673
v -0.015654 0.057484 0.044673
v -0.016240 0.077592 0.044673
v -0.015511 0.096058 0.044673
v -0.009360 0.124379 0.044673
v 0.002054 0.138628 0.044673
v 0.023582 0.142223 0.044673
v 0.026246 -0.000178 0.044673
v -0.000514 0.008256 0.044673
v -0.029176 -0.062678 0.044673
v -0.092207 -0.289240 0.044673
v 0.089657 -0.289240 0.044673
v 0.007983 0.239524 0.044673
v -0.007584 0.238192 0.044673
v -0.052940 0.190740 0.044673
v -0.066589 0.094283 0.044673
v -0.064163 0.041104 0.044673
v 0.155375 0.057484 0.044673
v 0.154788 0.077592 0.044673
v 0.155518 0.096058 0.044673
v 0.157705 0.111683 0.044673
v 0.167724 0.134055 0.044673
v 0.179265 0.140980 0.044673
v 0.194611 0.142223 0.044673
v 0.212239 0.142223 0.044673
v 0.197274 -0.000178 0.044673
v 0.186558 0.000621 0.044673
v 0.164554 0.017578 0.044673
v 0.078821 -0.289240 0.044673
v 0.212239 -0.095348 0.044673
v 0.212239 -0.289240 0.044673
v 0.260686 -0.289240 0.044673
v 0.260686 0.239524 0.044673
v 0.163444 0.238192 0.044673
v 0.138555 0.225763 0.044673
v 0.110717 0.165128 0.044673
v 0.104440 0.094283 0.044673
v 0.114142 -0.001243 0.044673
v 0.125920 -0.035067 0.044673
v 0.269381 -0.186967 0.044673
v 0.269381 -0.289240 0.044673
v 0.405969 -0.289240 0.044673
v 0.357523 0.137251 0.044673
v 0.357523 0.045987 0.044673
v 0.275722 -0.056285 0.044673
v 0.269381 -0.186967 -0.044673
v 0.269381 -0.289240 -0.044673
v 0.405969 -0.289240 -0.044673
v 0.405969 0.239524 0.044673
v 0.405969 0.239524 -0.044673
v 0.269381 0.239524 0.044673
v 0.269381 0.239524 -0.044673
v 0.269381 0.137251 0.044673
v 0.357523 0.045987 -0.044673
v 0.275722 0.045987 0.044673
v 0.275722 0.045987 -0.044673
v 0.357523 -0.056285 0.044673
v 0.357523 -0.186967 0.044673
v 0.357523 -0.186967 -0.044673
v 0.157135 0.041903 0.044673
v 0.157135 0.041903 -0.044673
v 0.154788 0.077592 -0.044673
v 0.157705 0.111683 -0.044673
v 0.161669 0.124379 0.044673
v 0.173083 0.138628 0.044673
v 0.179265 0.140980 -0.044673
v 0.186399 0.141912 0.044673
v 0.212239 -0.000178 0.044673
v 0.212239 -0.000178 -0.044673
v 0.197274 -0.000178 -0.044673
v 0.186558 0.000621 -0.044673
v 0.177743 0.003019 0.044673
v 0.177743 0.003018 -0.044673
v 0.170514 0.008256 0.044673
v 0.160162 0.029164 0.044673
v 0.141852 -0.062678 0.044673
v 0.141852 -0.062678 -0.044673
v 0.138301 -0.289240 0.044673
v 0.138301 -0.289240 -0.044673
v 0.189792 -0.095348 0.044673
v 0.189792 -0.095348 -0.044673
v 0.260686 -0.289240 -0.044673
v 0.179012 0.239524 0.044673
v 0.179012 0.239524 -0.044673
v 0.163444 0.238192 -0.044673
v 0.150223 0.234197 0.044673
v 0.138555 0.225763 -0.044673
v 0.127648 0.211115 0.044673
v 0.118089 0.190740 0.044673
v 0.118089 0.190740 -0.044673
v 0.110717 0.165128 -0.044673
v 0.106009 0.133301 0.044673
v 0.106009 0.133301 -0.044673
v 0.104440 0.094283 -0.044673
v 0.106865 0.041104 0.044673
v 0.106865 0.041104 -0.044673
v 0.114142 -0.001243 -0.044673
v 0.125920 -0.035067 -0.044673
v -0.013894 0.041903 0.044673
v -0.016240 0.077592 -0.044673
v -0.015511 0.096058 -0.044673
v -0.013323 0.111683 0.044673
v -0.013323 0.111683 -0.044673
v -0.009360 0.124379 -0.044673
v -0.003304 0.134055 0.044673
v 0.002054 0.138628 -0.044673
v 0.008237 0.140980 0.044673
v 0.008237 0.140980 -0.044673
v 0.015371 0.141912 0.044673
v 0.023582 0.142223 -0.044673
v 0.041211 0.142223 0.044673
v 0.041211 0.142223 -0.044673
v 0.041211 -0.000178 0.044673
v 0.015529 0.000621 0.044673
v 0.006715 0.003019 0.044673
v -0.006475 0.017578 0.044673
v -0.006475 0.017578 -0.044673
v -0.010866 0.029164 0.044673
v -0.010866 0.029164 -0.044673
v -0.029176 -0.062678 -0.044673
v -0.032727 -0.289240 0.044673
v -0.032727 -0.289240 -0.044673
v 0.018763 -0.095348 0.044673
v 0.041211 -0.095348 0.044673
v 0.041211 -0.095348 -0.044673
v 0.041211 -0.289240 0.044673
v 0.089657 0.239524 0.044673
v 0.089657 0.239524 -0.044673
v 0.007983 0.239524 -0.044673
v -0.020806 0.234197 0.044673
v -0.032473 0.225763 0.044673
v -0.043380 0.211115 0.044673
v -0.060311 0.165128 0.044673
v -0.065019 0.133301 0.044673
v -0.065019 0.133301 -0.044673
v -0.066589 0.094283 -0.044673
v -0.064163 0.041104 -0.044673
v -0.056887 -0.001243 0.044673
v -0.045108 -0.035067 0.044673
v -0.045108 -0.035067 -0.044673
v -0.258511 0.084179 0.044673
v -0.258511 0.084179 -0.044673
v -0.265011 -0.025028 -0.044673
v -0.258543 -0.133555 0.044673
v -0.239139 -0.217190 -0.044673
v -0.208321 -0.270583 -0.044673
v -0.167611 -0.288381 0.044673
v -0.126996 -0.270583 0.044673
v -0.096210 -0.217190 -0.044673
v -0.076806 -0.133555 -0.044673
v -0.070338 -0.025028 -0.044673
v -0.096210 0.167814 0.044673
v -0.096210 0.167814 -0.044673
v -0.208163 0.220952 0.044673
v -0.185620 -0.183209 -0.044673
v -0.193578 -0.170849 0.044673
v -0.193578 -0.170849 -0.044673
v -0.200458 -0.153136 0.044673
v -0.200458 -0.153136 -0.044673
v -0.206641 -0.127948 -0.044673
v -0.210984 -0.098597 0.044673
v -0.213553 -0.064403 -0.044673
v -0.214409 -0.024688 0.044673
v -0.214409 -0.024688 -0.044673
v -0.213426 0.017448 -0.044673
v -0.210477 0.052789 -0.044673
v -0.205943 0.081673 0.044673
v -0.200205 0.104440 0.044673
v -0.200205 0.104440 -0.044673
v -0.193245 0.122025 0.044673
v -0.185303 0.134003 0.044673
v -0.176695 0.140884 -0.044673
v -0.167738 0.143178 0.044673
v -0.167738 0.143178 -0.044673
v -0.158749 0.140969 0.044673
v -0.158749 0.140969 -0.044673
v -0.142452 0.122620 -0.044673
v -0.135271 0.105119 -0.044673
v -0.120940 -0.025028 0.044673
v -0.121907 -0.066867 -0.044673
v -0.129295 -0.130836 0.044673
v -0.135017 -0.153816 0.044673
v -0.141898 -0.171231 0.044673
v -0.149856 -0.183379 -0.044673
v -0.158575 -0.190515 -0.044673
v -0.167738 -0.192894 0.044673
v -0.167738 -0.192894 -0.044673
v -0.176901 -0.190473 0.044673
v -0.373579 0.041903 0.044673
v -0.373579 0.041903 -0.044673
v -0.375339 0.057484 -0.044673
v -0.375925 0.077592 0.044673
v -0.375925 0.077592 -0.044673
v -0.375196 0.096058 0.044673
v -0.373008 0.111683 0.044673
v -0.369045 0.124379 0.044673
v -0.362989 0.134055 0.044673
v -0.362989 0.134055 -0.044673
v -0.357631 0.138628 -0.044673
v -0.351449 0.140980 -0.044673
v -0.344315 0.141912 -0.044673
v -0.318475 -0.000178 0.044673
v -0.333440 -0.000178 0.044673
v -0.333440 -0.000178 -0.044673
v -0.344156 0.000621 0.044673
v -0.344156 0.000621 -0.044673
v -0.352970 0.003018 -0.044673
v -0.360199 0.008256 0.044673
v -0.370551 0.029164 0.044673
v -0.370551 0.029164 -0.044673
v -0.451892 -0.289240 0.044673
v -0.451892 -0.289240 -0.044673
v -0.392412 -0.289240 -0.044673
v -0.270028 0.239524 -0.044673
v -0.351702 0.239524 0.044673
v -0.367270 0.238192 0.044673
v -0.367270 0.238192 -0.044673
v -0.380491 0.234197 0.044673
v -0.392159 0.225763 0.044673
v -0.392159 0.225763 -0.044673
v -0.403066 0.211115 0.044673
v -0.412625 0.190740 0.044673
v -0.419996 0.165128 -0.044673
v -0.424705 0.133301 0.044673
v -0.423849 0.041104 0.044673
v -0.416572 -0.001243 0.044673
v -0.416572 -0.001243 -0.044673
v -0.404793 -0.035067 0.044673
v -0.404793 -0.035067 -0.044673
vn -0.0000 -0.0000 -1.0000
vn -0.0000 -0.0000 1.0000
vn -0.7572 0.4619 -0.4619
vn -0.7572 -0.4619 -0.4619
vn -0.7572 -0.4619 0.4619
vn -0.7572 0.4619 0.4619
vn 0.7572 -0.4619 -0.4619
vn 0.7572 -0.4619 0.4619
vn 0.7572 0.4619 -0.4619
vn 0.7572 0.4619 0.4619
vn -0.4602 -0.2807 -0.8422
vn -0.4602 -0.2807 0.8422
vn -0.4602 0.2807 -0.8422
vn -0.4602 0.2807 0.8422
vn 0.8203 0.1424 -0.5539
vn 0.8400 0.0594 -0.5393
vn 0.8400 0.0594 0.5393
vn 0.8203 0.1424 0.5539
vn 0.8450 -0.0043 -0.5348
vn 0.8450 -0.0043 0.5348
vn 0.8360 -0.0745 -0.5436
vn 0.8360 -0.0745 0.5436
vn 0.8039 -0.1786 -0.5673
vn 0.8039 -0.1786 0.5673
vn 0.7215 -0.3247 -0.6116
vn 0.7215 -0.3247 0.6116
vn 0.5741 -0.4841 -0.6603
vn 0.5741 -0.4841 0.6603
vn 0.3677 -0.6070 -0.7045
vn 0.3677 -0.6070 0.7045
vn 0.1716 -0.6751 -0.7175
vn 0.1716 -0.6751 0.7175
vn 0.0588 -0.6990 -0.7127
vn 0.0588 -0.6990 0.7127
vn 0.0133 -0.7044 -0.7097
vn 0.0133 -0.7044 0.7097
vn 0.0261 0.7016 -0.7121
vn 0.0261 0.7016 0.7121
vn 0.1185 0.6864 -0.7175
vn 0.1185 0.6864 0.7175
vn 0.3078 0.6286 -0.7142
vn 0.3078 0.6286 0.7142
vn 0.5452 0.4978 -0.6745
vn 0.5452 0.4978 0.6745
vn 0.7109 0.3524 -0.6086
vn 0.7109 0.3524 0.6086
vn 0.7859 0.2398 -0.5699
vn 0.7859 0.2398 0.5699
vn -0.6959 -0.0706 -0.7147
vn -0.8476 -0.3325 -0.4135
vn -0.8476 -0.3325 0.4135
vn -0.6959 -0.0706 0.7147
vn 0.6237 -0.5806 -0.5234
vn 0.6237 -0.5806 0.5234
vn 0.4391 -0.4088 -0.8001
vn 0.4391 -0.4088 0.8001
vn -0.0305 0.7124 -0.7011
vn -0.0305 0.7124 0.7011
vn -0.1374 0.7120 -0.6886
vn -0.1374 0.7120 0.6886
vn -0.3399 0.6732 -0.6567
vn -0.3399 0.6732 0.6567
vn -0.5642 0.5603 -0.6064
vn -0.5642 0.5603 0.6064
vn -0.7109 0.4205 -0.5637
vn -0.7109 0.4205 0.5637
vn -0.7937 0.2957 -0.5316
vn -0.7937 0.2957 0.5316
vn -0.8403 0.1810 -0.5111
vn -0.8403 0.1810 0.5111
vn -0.8602 0.0803 -0.5036
vn -0.8602 0.0803 0.5036
vn -0.8635 -0.0023 -0.5044
vn -0.8635 -0.0023 0.5044
vn -0.8602 -0.0926 -0.5014
vn -0.8602 -0.0926 0.5014
vn -0.8325 -0.2127 -0.5116
vn -0.8325 -0.2127 0.5116
vn -0.7660 -0.3466 -0.5414
vn -0.7660 -0.3466 0.5414
vn -0.8002 0.3080 -0.5145
vn -0.8590 0.1233 -0.4969
vn -0.8590 0.1233 0.4969
vn -0.8002 0.3080 0.5145
vn -0.8669 -0.0000 -0.4984
vn -0.8669 -0.0000 0.4984
vn -0.8590 -0.1229 -0.4970
vn -0.8590 -0.1229 0.4970
vn -0.8008 -0.3067 -0.5144
vn -0.8008 -0.3067 0.5144
vn -0.5684 -0.5827 -0.5808
vn -0.5684 -0.5827 0.5808
vn 0.0004 -0.7570 -0.6534
vn 0.0004 -0.7570 0.6534
vn 0.5689 -0.5824 -0.5807
vn 0.5689 -0.5824 0.5807
vn 0.8009 -0.3065 -0.5144
vn 0.8009 -0.3065 0.5144
vn 0.8590 -0.1229 -0.4970
vn 0.8590 -0.1229 0.4970
vn 0.8669 -0.0002 -0.4985
vn 0.8669 -0.0002 0.4985
vn 0.8591 0.1228 -0.4969
vn 0.8591 0.1228 0.4969
vn 0.8007 0.3073 -0.5143
vn 0.8007 0.3073 0.5143
vn 0.5674 0.5833 -0.5812
vn 0.5674 0.5833 0.5812
vn -0.0002 0.7569 -0.6535
vn -0.0002 0.7569 0.6535
vn -0.5671 0.5834 -0.5814
vn -0.5671 0.5834 0.5814
vn 0.5669 0.4903 -0.6619
vn 0.7087 0.3566 -0.6087
vn 0.7087 0.3566 0.6087
vn 0.5669 0.4903 0.6619
vn 0.7832 0.2456 -0.5712
vn 0.7832 0.2456 0.5712
vn 0.8193 0.1603 -0.5505
vn 0.8193 0.1603 0.5505
vn 0.8371 0.0931 -0.5390
vn 0.8371 0.0931 0.5390
vn 0.8456 0.0408 -0.5323
vn 0.8456 0.0408 0.5323
vn 0.8481 -0.0008 -0.5298
vn 0.8481 -0.0008 0.5298
vn 0.8444 -0.0450 -0.5338
vn 0.8444 -0.0450 0.5338
vn 0.8359 -0.1001 -0.5397
vn 0.8359 -0.1001 0.5397
vn 0.8179 -0.1664 -0.5507
vn 0.8179 -0.1664 0.5507
vn 0.7811 -0.2503 -0.5721
vn 0.7811 -0.2503 0.5721
vn 0.7034 -0.3624 -0.6114
vn 0.7034 -0.3624 0.6114
vn 0.5567 -0.4977 -0.6651
vn 0.5567 -0.4977 0.6651
vn 0.3186 -0.6187 -0.7182
vn 0.3186 -0.6187 0.7182
vn 0.0034 -0.6695 -0.7428
vn 0.0034 -0.6695 0.7428
vn -0.3121 -0.6210 -0.7190
vn -0.3121 -0.6210 0.7190
vn -0.5524 -0.5004 -0.6667
vn -0.5524 -0.5004 0.6667
vn -0.7001 -0.3686 -0.6115
vn -0.7001 -0.3686 0.6115
vn -0.7773 -0.2551 -0.5750
vn -0.7773 -0.2551 0.5750
vn -0.8174 -0.1656 -0.5517
vn -0.8174 -0.1656 0.5517
vn -0.8365 -0.0985 -0.5390
vn -0.8365 -0.0985 0.5390
vn -0.8446 -0.0451 -0.5335
vn -0.8446 -0.0451 0.5335
vn -0.8478 -0.0004 -0.5303
vn -0.8478 -0.0004 0.5303
vn -0.8445 0.0445 -0.5336
vn -0.8445 0.0445 0.5336
vn -0.8361 0.0992 -0.5395
vn -0.8361 0.0992 0.5395
vn -0.8186 0.1647 -0.5502
vn -0.8186 0.1647 0.5502
vn -0.7814 0.2489 -0.5722
vn -0.7814 0.2489 0.5722
vn -0.7053 0.3608 -0.6102
vn -0.7053 0.3608 0.6102
vn -0.5620 0.4943 -0.6632
vn -0.5620 0.4943 0.6632
vn -0.3235 0.6160 -0.7182
vn -0.3235 0.6160 0.7182
vn 0.0015 0.6677 -0.7444
vn 0.0015 0.6677 0.7444
vn 0.3279 0.6139 -0.7181
vn 0.3279 0.6139 0.7181
vt 0.273088 0.778371
vt 0.279670 0.812691
vt 0.273088 0.820431
vt 0.284185 0.820431
vt 0.286300 0.820325
vt 0.288096 0.820007
vt 0.289681 0.819336
vt 0.291163 0.818171
vt 0.292462 0.816550
vt 0.293464 0.814513
vt 0.282066 0.812691
vt 0.283181 0.812666
vt 0.294103 0.811981
vt 0.279670 0.801364
vt 0.284150 0.812592
vt 0.284990 0.812405
vt 0.285718 0.812042
vt 0.286541 0.811272
vt 0.294317 0.808878
vt 0.287080 0.810262
vt 0.287377 0.809019
vt 0.287476 0.807550
vt 0.293987 0.804648
vt 0.287396 0.805951
vt 0.287157 0.804711
vt 0.286746 0.803698
vt 0.292998 0.801279
vt 0.286149 0.802776
vt 0.285339 0.802035
vt 0.284357 0.801618
vt 0.283160 0.801428
vt 0.281704 0.801364
vt 0.279670 0.793794
vt 0.291398 0.798589
vt 0.289234 0.796393
vt 0.282720 0.793794
vt 0.297797 0.778371
vt 0.279670 0.778371
vt 0.289716 0.778371
vt 0.253655 0.819834
vt 0.264683 0.819834
vt 0.259173 0.821307
vt 0.249472 0.815417
vt 0.268874 0.815417
vt 0.246836 0.808465
vt 0.257969 0.813185
vt 0.259191 0.813369
vt 0.260408 0.813178
vt 0.271523 0.808465
vt 0.256821 0.812635
vt 0.261577 0.812606
vt 0.255755 0.811660
vt 0.262656 0.811611
vt 0.254779 0.810205
vt 0.263602 0.810149
vt 0.253998 0.808323
vt 0.264381 0.808256
vt 0.245957 0.799387
vt 0.272407 0.799387
vt 0.253375 0.805841
vt 0.264997 0.805855
vt 0.265398 0.802918
vt 0.252968 0.802836
vt 0.265532 0.799415
vt 0.252832 0.799387
vt 0.265415 0.796114
vt 0.246836 0.790365
vt 0.252964 0.795909
vt 0.271528 0.790365
vt 0.265066 0.793271
vt 0.253358 0.792989
vt 0.264476 0.790831
vt 0.253967 0.790591
vt 0.263636 0.788738
vt 0.254745 0.788681
vt 0.249472 0.783413
vt 0.268892 0.783413
vt 0.262701 0.787265
vt 0.255680 0.787233
vt 0.261620 0.786238
vt 0.256761 0.786224
vt 0.260436 0.785634
vt 0.257946 0.785630
vt 0.259191 0.785433
vt 0.253655 0.778975
vt 0.264704 0.778975
vt 0.259173 0.777495
vt 0.224220 0.778371
vt 0.230802 0.812691
vt 0.224220 0.820431
vt 0.235316 0.820431
vt 0.237431 0.820325
vt 0.239228 0.820007
vt 0.240813 0.819336
vt 0.242295 0.818171
vt 0.243594 0.816550
vt 0.244595 0.814513
vt 0.233197 0.812691
vt 0.234313 0.812666
vt 0.245235 0.811981
vt 0.230802 0.801364
vt 0.235282 0.812592
vt 0.236122 0.812405
vt 0.236850 0.812041
vt 0.237673 0.811272
vt 0.245448 0.808878
vt 0.238211 0.810262
vt 0.238508 0.809019
vt 0.238607 0.807550
vt 0.245118 0.804648
vt 0.238528 0.805951
vt 0.238289 0.804711
vt 0.237877 0.803698
vt 0.244130 0.801279
vt 0.237281 0.802776
vt 0.236471 0.802035
vt 0.235489 0.801618
vt 0.234291 0.801428
vt 0.232835 0.801364
vt 0.230802 0.793794
vt 0.242530 0.798589
vt 0.240365 0.796393
vt 0.233852 0.793794
vt 0.248929 0.778371
vt 0.230802 0.778371
vt 0.240847 0.778371
vt 0.200983 0.778371
vt 0.207565 0.812691
vt 0.200983 0.820431
vt 0.212079 0.820431
vt 0.214195 0.820325
vt 0.215991 0.820007
vt 0.217576 0.819336
vt 0.219058 0.818171
vt 0.220357 0.816550
vt 0.221358 0.814513
vt 0.209960 0.812691
vt 0.211076 0.812666
vt 0.221998 0.811981
vt 0.207565 0.801364
vt 0.212045 0.812592
vt 0.212885 0.812405
vt 0.213613 0.812041
vt 0.214436 0.811272
vt 0.222211 0.808878
vt 0.214974 0.810262
vt 0.215271 0.809019
vt 0.215371 0.807550
vt 0.221882 0.804648
vt 0.215291 0.805951
vt 0.215052 0.804711
vt 0.214640 0.803698
vt 0.220893 0.801279
vt 0.214044 0.802776
vt 0.213234 0.802035
vt 0.212252 0.801618
vt 0.211054 0.801428
vt 0.209598 0.801364
vt 0.207565 0.793794
vt 0.219293 0.798589
vt 0.217128 0.796393
vt 0.210615 0.793794
vt 0.225692 0.778371
vt 0.207565 0.778371
vt 0.217611 0.778371
vt 0.181244 0.778371
vt 0.187826 0.812296
vt 0.181244 0.820431
vt 0.199801 0.820431
vt 0.199801 0.812296
vt 0.187826 0.805036
vt 0.187826 0.796901
vt 0.198940 0.805036
vt 0.198940 0.796901
vt 0.187826 0.786506
vt 0.199801 0.786506
vt 0.199801 0.778371
vt 0.265415 0.796114
vt 0.237431 0.820325
vt 0.214436 0.811272
s 0
usemtl Material
f 13/1/1 5/2/1 339/3/1
f 5/2/1 14/4/1 339/3/1
f 5/2/1 342/5/1 14/4/1
f 5/2/1 15/6/1 342/5/1
f 5/2/1 345/7/1 15/6/1
f 5/2/1 16/8/1 345/7/1
f 5/2/1 17/9/1 16/8/1
f 5/2/1 348/10/1 17/9/1
f 5/2/1 4/11/1 348/10/1
f 4/11/1 326/12/1 348/10/1
f 326/12/1 18/13/1 348/10/1
f 13/1/1 6/14/1 5/2/1
f 325/15/1 18/13/1 326/12/1
f 324/16/1 18/13/1 325/15/1
f 323/17/1 18/13/1 324/16/1
f 3/18/1 18/13/1 323/17/1
f 3/18/1 19/19/1 18/13/1
f 2/20/1 19/19/1 3/18/1
f 1/21/1 19/19/1 2/20/1
f 318/22/1 19/19/1 1/21/1
f 318/22/1 20/23/1 19/19/1
f 316/24/1 20/23/1 318/22/1
f 315/25/1 20/23/1 316/24/1
f 335/26/1 20/23/1 315/25/1
f 335/26/1 352/27/1 20/23/1
f 8/28/1 352/27/1 335/26/1
f 7/29/1 352/27/1 8/28/1
f 332/30/1 352/27/1 7/29/1
f 331/31/1 352/27/1 332/30/1
f 329/32/1 352/27/1 331/31/1
f 13/1/1 329/32/1 6/14/1
f 13/1/1 11/33/1 329/32/1
f 11/33/1 352/27/1 329/32/1
f 11/33/1 354/34/1 352/27/1
f 11/33/1 9/35/1 354/34/1
f 11/33/1 10/36/1 9/35/1
f 10/36/1 337/37/1 9/35/1
f 13/1/1 12/38/1 11/33/1
f 338/39/1 337/37/1 10/36/1
f 26/40/1 28/41/1 27/42/1
f 278/43/1 28/41/1 26/40/1
f 278/43/1 21/44/1 28/41/1
f 25/45/1 301/46/1 278/43/1
f 301/46/1 21/44/1 278/43/1
f 301/46/1 299/47/1 21/44/1
f 299/47/1 297/48/1 21/44/1
f 297/48/1 267/49/1 21/44/1
f 25/45/1 33/50/1 301/46/1
f 32/51/1 267/49/1 297/48/1
f 25/45/1 302/52/1 33/50/1
f 31/53/1 267/49/1 32/51/1
f 25/45/1 303/54/1 302/52/1
f 294/55/1 267/49/1 31/53/1
f 25/45/1 34/56/1 303/54/1
f 30/57/1 267/49/1 294/55/1
f 276/58/1 34/56/1 25/45/1
f 30/57/1 268/59/1 267/49/1
f 276/58/1 35/60/1 34/56/1
f 291/61/1 268/59/1 30/57/1
f 290/62/1 268/59/1 291/61/1
f 276/58/1 36/63/1 35/60/1
f 289/64/1 268/59/1 290/62/1
f 276/58/1 37/65/1 36/63/1
f 287/66/1 268/59/1 289/64/1
f 275/67/1 37/65/1 276/58/1
f 275/67/1 305/68/1 37/65/1
f 287/66/1 22/69/1 268/59/1
f 29/70/1 22/69/1 287/66/1
f 275/67/1 38/71/1 305/68/1
f 285/72/1 22/69/1 29/70/1
f 275/67/1 39/73/1 38/71/1
f 284/74/1 22/69/1 285/72/1
f 275/67/1 40/75/1 39/73/1
f 274/76/1 40/75/1 275/67/1
f 284/74/1 270/77/1 22/69/1
f 282/78/1 270/77/1 284/74/1
f 274/76/1 41/79/1 40/75/1
f 280/80/1 270/77/1 282/78/1
f 274/76/1 309/81/1 41/79/1
f 42/82/1 270/77/1 280/80/1
f 274/76/1 310/83/1 309/81/1
f 312/84/1 270/77/1 42/82/1
f 274/76/1 312/84/1 310/83/1
f 274/76/1 270/77/1 312/84/1
f 24/85/1 270/77/1 274/76/1
f 24/85/1 271/86/1 270/77/1
f 23/87/1 271/86/1 24/85/1
f 55/88/1 237/89/1 253/90/1
f 237/89/1 254/91/1 253/90/1
f 237/89/1 56/92/1 254/91/1
f 237/89/1 57/93/1 56/92/1
f 237/89/1 58/94/1 57/93/1
f 237/89/1 59/95/1 58/94/1
f 237/89/1 60/96/1 59/95/1
f 237/89/1 61/97/1 60/96/1
f 237/89/1 235/98/1 61/97/1
f 235/98/1 46/99/1 61/97/1
f 46/99/1 260/100/1 61/97/1
f 55/88/1 47/101/1 237/89/1
f 233/102/1 260/100/1 46/99/1
f 231/103/1 260/100/1 233/102/1
f 45/104/1 260/100/1 231/103/1
f 229/105/1 260/100/1 45/104/1
f 229/105/1 261/106/1 260/100/1
f 228/107/1 261/106/1 229/105/1
f 226/108/1 261/106/1 228/107/1
f 225/109/1 261/106/1 226/108/1
f 225/109/1 262/110/1 261/106/1
f 44/111/1 262/110/1 225/109/1
f 43/112/1 262/110/1 44/111/1
f 244/113/1 262/110/1 43/112/1
f 244/113/1 62/114/1 262/110/1
f 242/115/1 62/114/1 244/113/1
f 51/116/1 62/114/1 242/115/1
f 50/117/1 62/114/1 51/116/1
f 49/118/1 62/114/1 50/117/1
f 48/119/1 62/114/1 49/118/1
f 55/88/1 48/119/1 47/101/1
f 55/88/1 250/120/1 48/119/1
f 250/120/1 62/114/1 48/119/1
f 250/120/1 265/121/1 62/114/1
f 250/120/1 245/122/1 265/121/1
f 250/120/1 53/123/1 245/122/1
f 53/123/1 52/124/1 245/122/1
f 55/88/1 54/125/1 250/120/1
f 247/126/1 52/124/1 53/123/1
f 207/127/1 70/128/1 77/129/1
f 70/128/1 209/130/1 77/129/1
f 70/128/1 210/131/1 209/130/1
f 70/128/1 78/132/1 210/131/1
f 70/128/1 212/133/1 78/132/1
f 70/128/1 79/134/1 212/133/1
f 70/128/1 215/135/1 79/134/1
f 70/128/1 216/136/1 215/135/1
f 70/128/1 69/137/1 216/136/1
f 69/137/1 68/138/1 216/136/1
f 68/138/1 218/139/1 216/136/1
f 207/127/1 194/140/1 70/128/1
f 191/141/1 218/139/1 68/138/1
f 67/142/1 218/139/1 191/141/1
f 66/143/1 218/139/1 67/142/1
f 65/144/1 218/139/1 66/143/1
f 65/144/1 219/145/1 218/139/1
f 188/146/1 219/145/1 65/144/1
f 64/147/1 219/145/1 188/146/1
f 187/148/1 219/145/1 64/147/1
f 187/148/1 221/149/1 219/145/1
f 63/150/1 221/149/1 187/148/1
f 186/151/1 221/149/1 63/150/1
f 73/152/1 221/149/1 186/151/1
f 73/152/1 222/153/1 221/149/1
f 72/154/1 222/153/1 73/152/1
f 71/155/1 222/153/1 72/154/1
f 198/156/1 222/153/1 71/155/1
f 196/157/1 222/153/1 198/156/1
f 195/158/1 222/153/1 196/157/1
f 207/127/1 195/158/1 194/140/1
f 207/127/1 75/159/1 195/158/1
f 75/159/1 222/153/1 195/158/1
f 75/159/1 223/160/1 222/153/1
f 75/159/1 202/161/1 223/160/1
f 75/159/1 206/162/1 202/161/1
f 206/162/1 74/163/1 202/161/1
f 207/127/1 76/164/1 75/159/1
f 204/165/1 74/163/1 206/162/1
f 173/166/1 81/167/1 175/168/1
f 81/167/1 177/169/1 175/168/1
f 81/167/1 80/170/1 177/169/1
f 173/166/1 179/171/1 81/167/1
f 173/166/1 83/172/1 179/171/1
f 83/172/1 181/173/1 179/171/1
f 83/172/1 82/174/1 181/173/1
f 173/166/1 184/175/1 83/172/1
f 173/166/1 171/176/1 184/175/1
f 173/166/1 172/177/1 171/176/1
f 97/1/2 98/3/2 89/2/2
f 89/2/2 98/3/2 340/4/2
f 89/2/2 340/4/2 341/5/2
f 89/2/2 341/5/2 343/6/2
f 89/2/2 343/6/2 344/7/2
f 89/2/2 344/7/2 346/8/2
f 89/2/2 346/8/2 347/9/2
f 89/2/2 347/9/2 99/10/2
f 89/2/2 99/10/2 88/11/2
f 88/11/2 99/10/2 87/12/2
f 87/12/2 99/10/2 349/13/2
f 97/1/2 89/2/2 327/14/2
f 86/15/2 87/12/2 349/13/2
f 85/16/2 86/15/2 349/13/2
f 322/17/2 85/16/2 349/13/2
f 321/18/2 322/17/2 349/13/2
f 321/18/2 349/13/2 100/19/2
f 320/20/2 321/18/2 100/19/2
f 319/21/2 320/20/2 100/19/2
f 317/22/2 319/21/2 100/19/2
f 317/22/2 100/19/2 350/23/2
f 84/24/2 317/22/2 350/23/2
f 314/25/2 84/24/2 350/23/2
f 334/26/2 314/25/2 350/23/2
f 334/26/2 350/23/2 351/27/2
f 91/28/2 334/26/2 351/27/2
f 333/29/2 91/28/2 351/27/2
f 90/30/2 333/29/2 351/27/2
f 330/31/2 90/30/2 351/27/2
f 328/32/2 330/31/2 351/27/2
f 97/1/2 327/14/2 328/32/2
f 97/1/2 328/32/2 95/33/2
f 95/33/2 328/32/2 351/27/2
f 95/33/2 351/27/2 353/34/2
f 95/33/2 353/34/2 92/35/2
f 95/33/2 92/35/2 94/36/2
f 94/36/2 92/35/2 336/37/2
f 97/1/2 95/33/2 96/38/2
f 93/39/2 94/36/2 336/37/2
f 109/40/2 110/42/2 279/41/2
f 277/43/2 109/40/2 279/41/2
f 277/43/2 279/41/2 101/44/2
f 108/45/2 277/43/2 300/46/2
f 300/46/2 277/43/2 101/44/2
f 300/46/2 101/44/2 298/47/2
f 298/47/2 101/44/2 116/48/2
f 116/48/2 101/44/2 266/49/2
f 108/45/2 300/46/2 117/50/2
f 296/51/2 116/48/2 266/49/2
f 108/45/2 117/50/2 118/52/2
f 295/53/2 296/51/2 266/49/2
f 108/45/2 118/52/2 119/54/2
f 293/55/2 295/53/2 266/49/2
f 108/45/2 119/54/2 120/56/2
f 292/57/2 293/55/2 266/49/2
f 107/58/2 108/45/2 120/56/2
f 292/57/2 266/49/2 102/59/2
f 107/58/2 120/56/2 121/60/2
f 115/61/2 292/57/2 102/59/2
f 114/62/2 115/61/2 102/59/2
f 107/58/2 121/60/2 122/63/2
f 288/64/2 114/62/2 102/59/2
f 107/58/2 122/63/2 304/65/2
f 113/178/2 288/64/2 102/59/2
f 106/67/2 107/58/2 304/65/2
f 106/67/2 304/65/2 123/68/2
f 113/178/2 102/59/2 269/69/2
f 286/70/2 113/178/2 269/69/2
f 106/67/2 123/68/2 124/71/2
f 112/72/2 286/70/2 269/69/2
f 106/67/2 124/71/2 306/73/2
f 283/74/2 112/72/2 269/69/2
f 106/67/2 306/73/2 307/75/2
f 105/76/2 106/67/2 307/75/2
f 283/74/2 269/69/2 103/77/2
f 281/78/2 283/74/2 103/77/2
f 105/76/2 307/75/2 308/79/2
f 111/80/2 281/78/2 103/77/2
f 105/76/2 308/79/2 125/81/2
f 313/82/2 111/80/2 103/77/2
f 105/76/2 125/81/2 126/83/2
f 311/84/2 313/82/2 103/77/2
f 105/76/2 126/83/2 311/84/2
f 105/76/2 311/84/2 103/77/2
f 273/85/2 105/76/2 103/77/2
f 273/85/2 103/77/2 104/86/2
f 272/87/2 273/85/2 104/86/2
f 137/88/2 252/90/2 236/89/2
f 236/89/2 252/90/2 138/91/2
f 236/89/2 138/91/2 139/179/2
f 236/89/2 139/179/2 255/93/2
f 236/89/2 255/93/2 256/94/2
f 236/89/2 256/94/2 257/95/2
f 236/89/2 257/95/2 140/96/2
f 236/89/2 140/96/2 258/97/2
f 236/89/2 258/97/2 132/98/2
f 132/98/2 258/97/2 234/99/2
f 234/99/2 258/97/2 259/100/2
f 137/88/2 236/89/2 238/101/2
f 232/102/2 234/99/2 259/100/2
f 131/103/2 232/102/2 259/100/2
f 230/104/2 131/103/2 259/100/2
f 130/105/2 230/104/2 259/100/2
f 130/105/2 259/100/2 141/106/2
f 227/107/2 130/105/2 141/106/2
f 129/108/2 227/107/2 141/106/2
f 128/109/2 129/108/2 141/106/2
f 128/109/2 141/106/2 142/110/2
f 127/111/2 128/109/2 142/110/2
f 224/112/2 127/111/2 142/110/2
f 243/113/2 224/112/2 142/110/2
f 243/113/2 142/110/2 263/114/2
f 241/115/2 243/113/2 263/114/2
f 134/116/2 241/115/2 263/114/2
f 240/117/2 134/116/2 263/114/2
f 239/118/2 240/117/2 263/114/2
f 133/119/2 239/118/2 263/114/2
f 137/88/2 238/101/2 133/119/2
f 137/88/2 133/119/2 249/120/2
f 249/120/2 133/119/2 263/114/2
f 249/120/2 263/114/2 264/121/2
f 249/120/2 264/121/2 135/122/2
f 249/120/2 135/122/2 248/123/2
f 248/123/2 135/122/2 136/124/2
f 137/88/2 249/120/2 251/125/2
f 246/126/2 248/123/2 136/124/2
f 157/127/2 158/129/2 150/128/2
f 150/128/2 158/129/2 208/130/2
f 150/128/2 208/130/2 159/131/2
f 150/128/2 159/131/2 211/132/2
f 150/128/2 211/132/2 160/133/2
f 150/128/2 160/133/2 213/134/2
f 150/128/2 213/134/2 214/135/2
f 150/128/2 214/135/2 161/136/2
f 150/128/2 161/136/2 149/137/2
f 149/137/2 161/136/2 192/138/2
f 192/138/2 161/136/2 217/139/2
f 157/127/2 150/128/2 193/140/2
f 148/141/2 192/138/2 217/139/2
f 190/142/2 148/141/2 217/139/2
f 147/143/2 190/142/2 217/139/2
f 189/180/2 147/143/2 217/139/2
f 189/180/2 217/139/2 162/145/2
f 146/146/2 189/180/2 162/145/2
f 145/147/2 146/146/2 162/145/2
f 144/148/2 145/147/2 162/145/2
f 144/148/2 162/145/2 220/149/2
f 143/150/2 144/148/2 220/149/2
f 185/151/2 143/150/2 220/149/2
f 200/152/2 185/151/2 220/149/2
f 200/152/2 220/149/2 163/153/2
f 153/154/2 200/152/2 163/153/2
f 199/155/2 153/154/2 163/153/2
f 197/156/2 199/155/2 163/153/2
f 152/157/2 197/156/2 163/153/2
f 151/158/2 152/157/2 163/153/2
f 157/127/2 193/140/2 151/158/2
f 157/127/2 151/158/2 155/159/2
f 155/159/2 151/158/2 163/153/2
f 155/159/2 163/153/2 164/160/2
f 155/159/2 164/160/2 201/161/2
f 155/159/2 201/161/2 205/162/2
f 205/162/2 201/161/2 154/163/2
f 157/127/2 155/159/2 156/164/2
f 203/165/2 205/162/2 154/163/2
f 167/166/2 174/168/2 168/167/2
f 168/167/2 174/168/2 176/169/2
f 168/167/2 176/169/2 178/170/2
f 167/166/2 168/167/2 169/171/2
f 167/166/2 169/171/2 182/172/2
f 182/172/2 169/171/2 180/173/2
f 182/172/2 180/173/2 170/174/2
f 167/166/2 182/172/2 183/175/2
f 167/166/2 183/175/2 165/176/2
f 167/166/2 165/176/2 166/177/2
s 1
f 171/176/3 172/177/4 166/177/5 165/176/6
f 172/177/4 173/166/7 167/166/8 166/177/5
f 173/166/7 175/168/9 174/168/10 167/166/8
f 175/168/9 177/169/3 176/169/6 174/168/10
f 177/169/3 80/170/4 178/170/5 176/169/6
f 80/170/4 81/167/11 168/167/12 178/170/5
f 81/167/11 179/171/13 169/171/14 168/167/12
f 179/171/13 181/173/3 180/173/6 169/171/14
f 181/173/3 82/174/4 170/174/5 180/173/6
f 82/174/4 83/172/11 182/172/12 170/174/5
f 83/172/11 184/175/13 183/175/14 182/172/12
f 184/175/13 171/176/3 165/176/6 183/175/14
f 186/151/15 63/150/16 143/150/17 185/151/18
f 63/150/16 187/148/19 144/148/20 143/150/17
f 187/148/19 64/147/21 145/147/22 144/148/20
f 64/147/21 188/146/23 146/146/24 145/147/22
f 188/146/23 65/144/25 189/180/26 146/146/24
f 65/144/25 66/143/27 147/143/28 189/180/26
f 66/143/27 67/142/29 190/142/30 147/143/28
f 67/142/29 191/141/31 148/141/32 190/142/30
f 191/141/31 68/138/33 192/138/34 148/141/32
f 68/138/33 69/137/35 149/137/36 192/138/34
f 69/137/35 70/128/11 150/128/12 149/137/36
f 70/128/11 194/140/13 193/140/14 150/128/12
f 194/140/13 195/158/37 151/158/38 193/140/14
f 195/158/37 196/157/39 152/157/40 151/158/38
f 196/157/39 198/156/41 197/156/42 152/157/40
f 198/156/41 71/155/43 199/155/44 197/156/42
f 71/155/43 72/154/45 153/154/46 199/155/44
f 72/154/45 73/152/47 200/152/48 153/154/46
f 73/152/47 186/151/15 185/151/18 200/152/48
f 202/161/49 74/163/50 154/163/51 201/161/52
f 74/163/50 204/165/53 203/165/54 154/163/51
f 204/165/53 206/162/55 205/162/56 203/165/54
f 206/162/55 75/159/11 155/159/12 205/162/56
f 75/159/11 76/164/4 156/164/5 155/159/12
f 76/164/4 207/127/7 157/127/8 156/164/5
f 207/127/7 77/129/9 158/129/10 157/127/8
f 77/129/9 209/130/57 208/130/58 158/129/10
f 209/130/57 210/131/59 159/131/60 208/130/58
f 210/131/59 78/132/61 211/132/62 159/131/60
f 78/132/61 212/133/63 160/133/64 211/132/62
f 212/133/63 79/134/65 213/134/66 160/133/64
f 79/134/65 215/135/67 214/135/68 213/134/66
f 215/135/67 216/136/69 161/136/70 214/135/68
f 216/136/69 218/139/71 217/139/72 161/136/70
f 218/139/71 219/145/73 162/145/74 217/139/72
f 219/145/73 221/149/75 220/149/76 162/145/74
f 221/149/75 222/153/77 163/153/78 220/149/76
f 222/153/77 223/160/79 164/160/80 163/153/78
f 223/160/79 202/161/49 201/161/52 164/160/80
f 43/112/15 44/111/16 127/111/17 224/112/18
f 44/111/16 225/109/19 128/109/20 127/111/17
f 225/109/19 226/108/21 129/108/22 128/109/20
f 226/108/21 228/107/23 227/107/24 129/108/22
f 228/107/23 229/105/25 130/105/26 227/107/24
f 229/105/25 45/104/27 230/104/28 130/105/26
f 45/104/27 231/103/29 131/103/30 230/104/28
f 231/103/29 233/102/31 232/102/32 131/103/30
f 233/102/31 46/99/33 234/99/34 232/102/32
f 46/99/33 235/98/35 132/98/36 234/99/34
f 235/98/35 237/89/11 236/89/12 132/98/36
f 237/89/11 47/101/13 238/101/14 236/89/12
f 47/101/13 48/119/37 133/119/38 238/101/14
f 48/119/37 49/118/39 239/118/40 133/119/38
f 49/118/39 50/117/41 240/117/42 239/118/40
f 50/117/41 51/116/43 134/116/44 240/117/42
f 51/116/43 242/115/45 241/115/46 134/116/44
f 242/115/45 244/113/47 243/113/48 241/115/46
f 244/113/47 43/112/15 224/112/18 243/113/48
f 245/122/49 52/124/50 136/124/51 135/122/52
f 52/124/50 247/126/53 246/126/54 136/124/51
f 247/126/53 53/123/55 248/123/56 246/126/54
f 53/123/55 250/120/11 249/120/12 248/123/56
f 250/120/11 54/125/4 251/125/5 249/120/12
f 54/125/4 55/88/7 137/88/8 251/125/5
f 55/88/7 253/90/9 252/90/10 137/88/8
f 253/90/9 254/91/57 138/91/58 252/90/10
f 254/91/57 56/92/59 139/179/60 138/91/58
f 56/92/59 57/93/61 255/93/62 139/179/60
f 57/93/61 58/94/63 256/94/64 255/93/62
f 58/94/63 59/95/65 257/95/66 256/94/64
f 59/95/65 60/96/67 140/96/68 257/95/66
f 60/96/67 61/97/69 258/97/70 140/96/68
f 61/97/69 260/100/71 259/100/72 258/97/70
f 260/100/71 261/106/73 141/106/74 259/100/72
f 261/106/73 262/110/75 142/110/76 141/106/74
f 262/110/75 62/114/77 263/114/78 142/110/76
f 62/114/77 265/121/79 264/121/80 263/114/78
f 265/121/79 245/122/49 135/122/52 264/121/80
f 21/44/81 267/49/82 266/49/83 101/44/84
f 267/49/82 268/59/85 102/59/86 266/49/83
f 268/59/85 22/69/87 269/69/88 102/59/86
f 22/69/87 270/77/89 103/77/90 269/69/88
f 270/77/89 271/86/91 104/86/92 103/77/90
f 271/86/91 23/87/93 272/87/94 104/86/92
f 23/87/93 24/85/95 273/85/96 272/87/94
f 24/85/95 274/76/97 105/76/98 273/85/96
f 274/76/97 275/67/99 106/67/100 105/76/98
f 275/67/99 276/58/101 107/58/102 106/67/100
f 276/58/101 25/45/103 108/45/104 107/58/102
f 25/45/103 278/43/105 277/43/106 108/45/104
f 278/43/105 26/40/107 109/40/108 277/43/106
f 26/40/107 27/42/109 110/42/110 109/40/108
f 27/42/109 28/41/111 279/41/112 110/42/110
f 28/41/111 21/44/81 101/44/84 279/41/112
f 280/80/113 282/78/114 281/78/115 111/80/116
f 282/78/114 284/74/117 283/74/118 281/78/115
f 284/74/117 285/72/119 112/72/120 283/74/118
f 285/72/119 29/70/121 286/70/122 112/72/120
f 29/70/121 287/66/123 113/178/124 286/70/122
f 287/66/123 289/64/125 288/64/126 113/178/124
f 289/64/125 290/62/127 114/62/128 288/64/126
f 290/62/127 291/61/129 115/61/130 114/62/128
f 291/61/129 30/57/131 292/57/132 115/61/130
f 30/57/131 294/55/133 293/55/134 292/57/132
f 294/55/133 31/53/135 295/53/136 293/55/134
f 31/53/135 32/51/137 296/51/138 295/53/136
f 32/51/137 297/48/139 116/48/140 296/51/138
f 297/48/139 299/47/141 298/47/142 116/48/140
f 299/47/141 301/46/143 300/46/144 298/47/142
f 301/46/143 33/50/145 117/50/146 300/46/144
f 33/50/145 302/52/147 118/52/148 117/50/146
f 302/52/147 303/54/149 119/54/150 118/52/148
f 303/54/149 34/56/151 120/56/152 119/54/150
f 34/56/151 35/60/153 121/60/154 120/56/152
f 35/60/153 36/63/155 122/63/156 121/60/154
f 36/63/155 37/65/157 304/65/158 122/63/156
f 37/65/157 305/68/159 123/68/160 304/65/158
f 305/68/159 38/71/161 124/71/162 123/68/160
f 38/71/161 39/73/163 306/73/164 124/71/162
f 39/73/163 40/75/165 307/75/166 306/73/164
f 40/75/165 41/79/167 308/79/168 307/75/166
f 41/79/167 309/81/169 125/81/170 308/79/168
f 309/81/169 310/83/171 126/83/172 125/81/170
f 310/83/171 312/84/173 311/84/174 126/83/172
f 312/84/173 42/82/175 313/82/176 311/84/174
f 42/82/175 280/80/113 111/80/116 313/82/176
f 315/25/15 316/24/16 84/24/17 314/25/18
f 316/24/16 318/22/19 317/22/20 84/24/17
f 318/22/19 1/21/21 319/21/22 317/22/20
f 1/21/21 2/20/23 320/20/24 319/21/22
f 2/20/23 3/18/25 321/18/26 320/20/24
f 3/18/25 323/17/27 322/17/28 321/18/26
f 323/17/27 324/16/29 85/16/30 322/17/28
f 324/16/29 325/15/31 86/15/32 85/16/30
f 325/15/31 326/12/33 87/12/34 86/15/32
f 326/12/33 4/11/35 88/11/36 87/12/34
f 4/11/35 5/2/11 89/2/12 88/11/36
f 5/2/11 6/14/13 327/14/14 89/2/12
f 6/14/13 329/32/37 328/32/38 327/14/14
f 329/32/37 331/31/39 330/31/40 328/32/38
f 331/31/39 332/30/41 90/30/42 330/31/40
f 332/30/41 7/29/43 333/29/44 90/30/42
f 7/29/43 8/28/45 91/28/46 333/29/44
f 8/28/45 335/26/47 334/26/48 91/28/46
f 335/26/47 315/25/15 314/25/18 334/26/48
f 9/35/49 337/37/50 336/37/51 92/35/52
f 337/37/50 338/39/53 93/39/54 336/37/51
f 338/39/53 10/36/55 94/36/56 93/39/54
f 10/36/55 11/33/11 95/33/12 94/36/56
f 11/33/11 12/38/4 96/38/5 95/33/12
f 12/38/4 13/1/7 97/1/8 96/38/5
f 13/1/7 339/3/9 98/3/10 97/1/8
f 339/3/9 14/4/57 340/4/58 98/3/10
f 14/4/57 342/5/59 341/5/60 340/4/58
f 342/5/59 15/6/61 343/6/62 341/5/60
f 15/6/61 345/7/63 344/7/64 343/6/62
f 345/7/63 16/8/65 346/8/66 344/7/64
f 16/8/65 17/9/67 347/9/68 346/8/66
f 17/9/67 348/10/69 99/10/70 347/9/68
f 348/10/69 18/13/71 349/13/72 99/10/70
f 18/13/71 19/19/73 100/19/74 349/13/72
f 19/19/73 20/23/75 350/23/76 100/19/74
f 20/23/75 352/27/77 351/27/78 350/23/76
f 352/27/77 354/34/79 353/34/80 351/27/78
f 354/34/79 9/35/49 92/35/52 353/34/80
